<svg xmlns="http://www.w3.org/2000/svg" viewBox="0 0 13.37 9.47"><defs><style>.cls-1{fill:#fece03;}.cls-2{fill:#dbe6ff;}</style></defs><title>Middel 31</title><g id="Laag_2" data-name="Laag 2"><g id="Laag_1-2" data-name="Laag 1"><path class="cls-1" d="M1.4,4A3,3,0,0,1,4.33,1.59a2.93,2.93,0,0,1,1.39.35,3.42,3.42,0,0,1,1-.87A3.1,3.1,0,0,0,4.41,0,3.15,3.15,0,0,0,1.26,3.15,3.17,3.17,0,0,0,1.4,4Z"/><path class="cls-2" d="M11.66,4.65a3.64,3.64,0,0,0,0-.48A3.19,3.19,0,0,0,5.82,2.42,2.59,2.59,0,0,0,4.33,2,2.66,2.66,0,0,0,1.68,4.62v0a2.46,2.46,0,0,0,.79,4.8H10.9a2.47,2.47,0,0,0,.76-4.82Z"/></g></g></svg>