<svg xmlns="http://www.w3.org/2000/svg" viewBox="0 0 9.64 9.64"><defs><style>.cls-1{fill:#fff;}.cls-2{fill:#ff3131;}.cls-3{fill:#3636ff;}</style></defs><title>Middel 37</title><g id="Laag_2" data-name="Laag 2"><g id="Laag_1-2" data-name="Laag 1"><path class="cls-1" d="M9.64,4.82a4.46,4.46,0,0,1-.3,1.64,4.8,4.8,0,0,1-9,0A4.46,4.46,0,0,1,0,4.82,4.46,4.46,0,0,1,.3,3.18a4.8,4.8,0,0,1,9,0A4.46,4.46,0,0,1,9.64,4.82Z"/><path class="cls-2" d="M9.34,3.18H.3a4.8,4.8,0,0,1,9,0Z"/><path class="cls-3" d="M9.34,6.46a4.8,4.8,0,0,1-9,0Z"/></g></g></svg>