<svg xmlns="http://www.w3.org/2000/svg" viewBox="0 0 12.14 11.76"><defs><style>.cls-1{fill:#dbe6ff;}.cls-2{fill:#a6d6ff;}</style></defs><title>Middel 34</title><g id="Laag_2" data-name="Laag 2"><g id="Laag_1-2" data-name="Laag 1"><path class="cls-1" d="M10.59,3.37a3.15,3.15,0,0,0,0-.44,2.9,2.9,0,0,0-5.34-1.6,2.4,2.4,0,0,0-3.75,2v0a2.24,2.24,0,0,0,.71,4.36H9.9a2.24,2.24,0,0,0,.69-4.37Z"/><path class="cls-2" d="M5.59,8.35a.12.12,0,0,0-.12.12v.94a.12.12,0,0,0,.12.12.12.12,0,0,0,.13-.12V8.47A.12.12,0,0,0,5.59,8.35Z"/><path class="cls-2" d="M4.07,8.71a.12.12,0,0,0-.13.12v.94a.13.13,0,0,0,.13.12.13.13,0,0,0,.12-.12V8.83A.12.12,0,0,0,4.07,8.71Z"/><path class="cls-2" d="M5.14,10.17a.12.12,0,0,0-.12.12v.94a.12.12,0,0,0,.24,0v-.94A.12.12,0,0,0,5.14,10.17Z"/><path class="cls-2" d="M7.32,8.71a.12.12,0,0,0-.12.12v.94a.12.12,0,0,0,.24,0V8.83A.12.12,0,0,0,7.32,8.71Z"/><path class="cls-2" d="M6.67,10.58a.12.12,0,0,0-.12.12v.94a.12.12,0,0,0,.12.12.13.13,0,0,0,.13-.12V10.7A.12.12,0,0,0,6.67,10.58Z"/><path class="cls-2" d="M8.08,9.89A.12.12,0,0,0,8,10V11a.12.12,0,0,0,.24,0V10A.12.12,0,0,0,8.08,9.89Z"/></g></g></svg>