<svg xmlns="http://www.w3.org/2000/svg" viewBox="0 0 9.64 9.64"><defs><style>.cls-1{fill:#3333d1;}.cls-2{fill:#fff;}.cls-3{fill:#ff3131;}</style></defs><title>Middel 36</title><g id="Laag_2" data-name="Laag 2"><g id="Laag_1-2" data-name="Laag 1"><path class="cls-1" d="M9.64,4.82a3,3,0,0,1,0,.52,1.5,1.5,0,0,1,0,.22,2.62,2.62,0,0,1-.09.38V6a.9.9,0,0,1-.08.28,1.42,1.42,0,0,1-.07.22l0,0a1.54,1.54,0,0,1-.08.19A1.73,1.73,0,0,1,9.1,7,1.51,1.51,0,0,1,9,7.22c-.07.12-.14.22-.2.33s0,0,0,0A3.47,3.47,0,0,1,8.42,8,4.74,4.74,0,0,1,6,9.49l-.09,0-.36.07-.24,0a4.41,4.41,0,0,1-.52,0,4.53,4.53,0,0,1-.52,0l-.2,0-.4-.08H3.65A4.78,4.78,0,0,1,1.42,8.23,4.19,4.19,0,0,1,1,7.78l-.15-.2L.81,7.49h0C.72,7.33.62,7.18.55,7s0,0,0,0A3.32,3.32,0,0,1,.3,6.46a1.72,1.72,0,0,1-.07-.21A1,1,0,0,1,.15,6v0a2.62,2.62,0,0,1-.09-.38,1.5,1.5,0,0,1,0-.22,3,3,0,0,1,0-.52A3,3,0,0,1,0,4.3a1.5,1.5,0,0,1,0-.22A2.62,2.62,0,0,1,.15,3.7v0a1,1,0,0,1,.08-.29s0,0,0,0A1.27,1.27,0,0,1,.3,3.18l0-.05a2.88,2.88,0,0,1,.13-.31,1.11,1.11,0,0,1,.09-.19l.09-.16a3.45,3.45,0,0,1,.25-.41L.94,2A4.78,4.78,0,0,1,3.65.14H3.7L4.1.05l.2,0a4.53,4.53,0,0,1,.52,0,4.41,4.41,0,0,1,.52,0l.24,0,.36.07L6,.15A4.8,4.8,0,0,1,8.51,1.73c.09.11.18.22.26.34l.09.13a.08.08,0,0,0,0,0,2.75,2.75,0,0,1,.17.29l.09.19a2.07,2.07,0,0,1,.15.34l.05.12a1.42,1.42,0,0,1,.07.22.9.9,0,0,1,.08.28v0a2.62,2.62,0,0,1,.09.38,1.5,1.5,0,0,1,0,.22A3,3,0,0,1,9.64,4.82Z"/><path class="cls-2" d="M9.29,3.06l-1,.64-.91.6L6.3,5l-.36.23-.12.08-.48.32-.43.28L4.85,6l-.55.36-.6.39L1.42,8.23A4.19,4.19,0,0,1,1,7.78l-.15-.2L.81,7.49h0C.72,7.33.62,7.18.55,7s0,0,0,0l1.57-1L3,5.34l.33-.22.36-.23.6-.39.3-.2.2-.13.54-.36.17-.11.43-.28L8.51,1.73c.09.11.18.22.26.34l.09.13a.08.08,0,0,0,0,0,2.75,2.75,0,0,1,.17.29l.09.19A2.07,2.07,0,0,1,9.29,3.06Z"/><path class="cls-3" d="M3.76,6,3.7,6,1,7.78l-.15-.2L.81,7.49h0L3.07,6Z"/><path class="cls-3" d="M9.05,2.53,7.26,3.7l-.91.6-.11.07H5.55l.11-.07.28-.19.63-.41L8.86,2.2a.08.08,0,0,0,0,0A2.75,2.75,0,0,1,9.05,2.53Z"/><path class="cls-2" d="M9.24,6.69A1.73,1.73,0,0,1,9.1,7,1.51,1.51,0,0,1,9,7.22c-.07.12-.14.22-.2.33s0,0,0,0A3.47,3.47,0,0,1,8.42,8L5.94,6.6l-.6-.34L4.85,6l-.07,0L4.3,5.67l-.57-.33h0l-.36-.21L1.89,4.3.83,3.7.24,3.36A1.27,1.27,0,0,1,.3,3.18l0-.05a2.88,2.88,0,0,1,.13-.31,1.11,1.11,0,0,1,.09-.19l.09-.16a3.45,3.45,0,0,1,.25-.41L.94,2,3.7,3.55,4,3.7l.33.19.5.28L5,4.3l.32.18.6.34L6.3,5l.56.31,1,.6Z"/><path class="cls-3" d="M4,4.37H3.19L3.07,4.3,2,3.7.45,2.82a1.11,1.11,0,0,1,.09-.19l.09-.16L2.79,3.7l.91.52.15.08Z"/><path class="cls-3" d="M6.83,6,9,7.22c-.07.12-.14.22-.2.33L6.05,6Z"/><path class="cls-2" d="M5.94.13V9.51l-.36.07-.24,0a4.41,4.41,0,0,1-.52,0,4.53,4.53,0,0,1-.52,0l-.2,0-.4-.08V.13L4.1.05l.2,0a4.53,4.53,0,0,1,.52,0,4.41,4.41,0,0,1,.52,0l.24,0Z"/><path class="cls-2" d="M9.64,4.82a3,3,0,0,1,0,.52,1.5,1.5,0,0,1,0,.22,2.62,2.62,0,0,1-.09.38H.15a2.62,2.62,0,0,1-.09-.38,1.5,1.5,0,0,1,0-.22,3,3,0,0,1,0-.52A3,3,0,0,1,0,4.3a1.5,1.5,0,0,1,0-.22A2.62,2.62,0,0,1,.15,3.7H9.49a2.62,2.62,0,0,1,.09.38,1.5,1.5,0,0,1,0,.22A3,3,0,0,1,9.64,4.82Z"/><path class="cls-3" d="M9.64,4.82a3,3,0,0,1,0,.52H0a3,3,0,0,1,0-.52A3,3,0,0,1,0,4.3H9.6A3,3,0,0,1,9.64,4.82Z"/><path class="cls-3" d="M5.34,0V9.61a4.41,4.41,0,0,1-.52,0,4.53,4.53,0,0,1-.52,0V0a4.53,4.53,0,0,1,.52,0A4.41,4.41,0,0,1,5.34,0Z"/></g></g></svg>