<svg xmlns="http://www.w3.org/2000/svg" viewBox="0 0 12.13 11.47"><defs><style>.cls-1{fill:#dbe6ff;}</style></defs><title>Middel 33</title><g id="Laag_2" data-name="Laag 2"><g id="Laag_1-2" data-name="Laag 1"><path class="cls-1" d="M10.58,3.36a3,3,0,0,0,0-.43,2.89,2.89,0,0,0-5.33-1.6,2.4,2.4,0,0,0-3.76,2v0a2.24,2.24,0,0,0,.72,4.36H9.89a2.25,2.25,0,0,0,.69-4.38Z"/><path class="cls-1" d="M5.24,8.38a.31.31,0,1,0,.32.31A.31.31,0,0,0,5.24,8.38Z"/><path class="cls-1" d="M6.38,9.39a.31.31,0,1,0,.31.31A.31.31,0,0,0,6.38,9.39Z"/><path class="cls-1" d="M7.34,8.27a.31.31,0,1,0,.32.31A.31.31,0,0,0,7.34,8.27Z"/><path class="cls-1" d="M8,10a.32.32,0,1,0,.31.31A.31.31,0,0,0,8,10Z"/><path class="cls-1" d="M5.87,10.84a.32.32,0,1,0,.31.32A.31.31,0,0,0,5.87,10.84Z"/><path class="cls-1" d="M4.41,9.58A.31.31,0,0,0,4.3,10a.3.3,0,0,0,.42.11.32.32,0,0,0,.12-.43A.31.31,0,0,0,4.41,9.58Z"/></g></g></svg>